<?xml version="1.0" encoding="utf-8"?>
<!-- Generator: Adobe Illustrator 16.0.4, SVG Export Plug-In . SVG Version: 6.00 Build 0)  -->
<!DOCTYPE svg PUBLIC "-//W3C//DTD SVG 1.1//EN" "http://www.w3.org/Graphics/SVG/1.1/DTD/svg11.dtd">
<svg version="1.1" id="Layer_1" xmlns="http://www.w3.org/2000/svg" xmlns:xlink="http://www.w3.org/1999/xlink" x="0px" y="0px"
	 width="600px" height="600px" viewBox="0 0 600 600" enable-background="new 0 0 600 600" xml:space="preserve">
<g id="XMLID_1_">
	<g>
		<path fill="#FFFFFF" d="M508.482,91.517v122.849l0.356-0.36L594.838,300l-85.995,85.994l-0.356-0.36v122.853H385.634l0.36,0.356
			L300,594.838l-85.995-85.995l-0.36-0.356H91.517V385.634l-0.36,0.36L5.162,300l85.995-85.995l0.36,0.36V91.517h122.849l-0.36-0.36
			L300,5.162l85.994,85.995l0.366,0.366L508.482,91.517z M466.785,231.494v-98.279h-97.7l-0.29-0.289L300,64.13l-68.795,68.795
			l0.289,0.29h-98.279v98.279l-0.289-0.289L64.13,300l68.795,68.795l0.289-0.289v98.279h97.7l0.29,0.289L300,535.87l68.795-68.796
			l-0.289-0.289h98.279v-98.279l0.289,0.289L535.87,300l-68.796-68.795L466.785,231.494z"/>
	</g>
</g>
<g>
	<g id="XMLID_2_">
		<g>
			<path fill="#FFFFFF" d="M410.89,237.55c13.181,14.4,21.16,32.76,21.16,55.2c0,79.01-48.109,96.4-93.91,101.49
				c7.38,6.38,13.95,18.899,13.95,38.09c0,27.52-0.24,49.67-0.24,56.439L300.91,541.5l-51.04-52.73c0-4.899-0.19-21.1-0.28-38.289
				c-57.22,12.439-69.29-24.271-69.29-24.271c-9.36-23.77-22.84-30.09-22.84-30.09c-18.66-12.771,1.41-12.51,1.41-12.51
				c20.65,1.449,31.52,21.199,31.52,21.199c18.35,31.44,48.12,22.36,59.86,17.101c1.84-13.29,7.17-22.37,13.06-27.51
				c-45.69-5.19-93.71-22.841-93.71-101.65c0-22.45,8.03-40.8,21.19-55.2c-2.13-5.18-9.17-26.1,1.99-54.43
				c0,0,17.28-5.53,56.58,21.09c16.41-4.57,34-6.85,51.48-6.93c17.48,0.08,35.08,2.37,51.521,6.93
				c39.26-26.62,56.51-21.09,56.51-21.09C420.06,211.45,413.02,232.37,410.89,237.55z M245.29,436.38c2.62-0.49,4.46-2.32,4.14-4.11
				c-0.33-1.819-2.69-2.89-5.32-2.439c-2.57,0.479-4.44,2.32-4.13,4.15C240.32,435.75,242.7,436.86,245.29,436.38z M228.03,437.95
				c2.62-0.03,4.73-1.53,4.67-3.34c0-1.801-2.15-3.261-4.76-3.21c-2.63,0.04-4.69,1.529-4.69,3.359
				C223.28,436.54,225.41,438.01,228.03,437.95z M214.71,433.29c0.52-1.76-1.11-3.75-3.6-4.51c-2.5-0.78-4.99,0.04-5.5,1.77
				c-0.5,1.74,1.12,3.76,3.61,4.51C211.71,435.79,214.18,435.01,214.71,433.29z M198.33,426.19c1.29-1.32,0.71-3.851-1.2-5.61
				c-1.89-1.8-4.47-2.18-5.69-0.85c-1.21,1.329-0.68,3.84,1.25,5.609C194.56,427.16,197.13,427.52,198.33,426.19z M186.46,413.96
				c1.38-0.96,1.38-3.3,0.03-5.29c-1.38-1.939-3.55-2.78-4.91-1.84c-1.38,0.93-1.38,3.28-0.03,5.229
				C182.91,414.02,185.11,414.89,186.46,413.96z M177.8,401.3c1.09-0.99,0.81-3.02-0.63-4.569c-1.44-1.53-3.42-1.98-4.5-1.011
				c-1.07,0.98-0.8,3.03,0.64,4.57C174.7,401.82,176.75,402.27,177.8,401.3z M167.95,391.42c0.56-1.11-0.36-2.63-1.98-3.36
				c-1.61-0.76-3.35-0.439-3.83,0.69c-0.52,1.11,0.38,2.62,2,3.34C165.72,392.86,167.46,392.52,167.95,391.42z"/>
		</g>
		<g>
		</g>
	</g>
</g>
</svg>
