<?xml version="1.0" encoding="utf-8"?>
<!-- Generator: Adobe Illustrator 16.0.4, SVG Export Plug-In . SVG Version: 6.00 Build 0)  -->
<!DOCTYPE svg PUBLIC "-//W3C//DTD SVG 1.1//EN" "http://www.w3.org/Graphics/SVG/1.1/DTD/svg11.dtd">
<svg version="1.1" id="Layer_1" xmlns="http://www.w3.org/2000/svg" xmlns:xlink="http://www.w3.org/1999/xlink" x="0px" y="0px"
	 width="600px" height="600px" viewBox="0 0 600 600" enable-background="new 0 0 600 600" xml:space="preserve">
<g id="XMLID_1_">
	<g>
		<path d="M508.482,91.517v122.849l0.358-0.36L594.838,300l-85.995,85.994l-0.358-0.36v122.851H385.634l0.36,0.358L300,594.838
			l-85.995-85.995l-0.36-0.358H91.517V385.634l-0.36,0.36L5.162,300l85.995-85.995l0.36,0.36V91.517h122.849l-0.36-0.36L300,5.162
			l85.994,85.995l0.366,0.366L508.482,91.517z M466.785,231.494v-98.279h-97.7l-0.29-0.289L300,64.13l-68.795,68.795l0.289,0.29
			h-98.279v98.279l-0.289-0.289L64.13,300l68.795,68.795l0.289-0.289v98.279h97.7l0.29,0.289L300,535.87l68.795-68.796l-0.289-0.289
			h98.279v-98.279l0.289,0.289L535.87,300l-68.796-68.795L466.785,231.494z"/>
	</g>
</g>
<g>
	<path d="M249.869,488.772c0-4.902-0.19-21.106-0.28-38.29c-57.219,12.439-69.293-24.268-69.293-24.268
		c-9.357-23.774-22.837-30.095-22.837-30.095c-18.663-12.766,1.407-12.506,1.407-12.506c20.652,1.45,31.528,21.2,31.528,21.2
		c18.344,31.438,48.115,22.353,59.854,17.097c1.846-13.291,7.173-22.373,13.058-27.508c-45.683-5.195-93.708-22.837-93.708-101.646
		c0-22.451,8.035-40.801,21.193-55.206c-2.135-5.182-9.176-26.096,1.993-54.429c0,0,17.273-5.528,56.574,21.085
		c16.407-4.561,34.002-6.842,51.483-6.921c17.475,0.079,35.083,2.361,51.521,6.921c39.261-26.613,56.504-21.085,56.504-21.085
		c11.196,28.333,4.157,49.247,2.022,54.429c13.185,14.405,21.168,32.756,21.168,55.206c0,79.002-48.116,96.392-93.917,101.486
		c7.379,6.381,13.95,18.899,13.95,38.084c0,27.521-0.24,49.673-0.24,56.444l-50.94,52.729L249.869,488.772z"/>
	<path fill="#FFFFFF" d="M167.951,391.417c-0.489,1.106-2.229,1.438-3.812,0.674c-1.614-0.726-2.517-2.227-1.996-3.336
		c0.479-1.136,2.218-1.453,3.83-0.696C167.587,388.785,168.509,390.309,167.951,391.417L167.951,391.417z"/>
	<path fill="#FFFFFF" d="M177.796,401.303c-1.048,0.965-3.099,0.519-4.488-1.017c-1.438-1.536-1.706-3.583-0.643-4.57
		c1.081-0.965,3.066-0.512,4.507,1.017C178.61,398.282,178.892,400.314,177.796,401.303L177.796,401.303z"/>
	<path fill="#FFFFFF" d="M186.461,413.955c-1.347,0.938-3.551,0.063-4.912-1.891c-1.347-1.953-1.347-4.301,0.032-5.238
		c1.361-0.938,3.533-0.093,4.912,1.841C187.836,410.658,187.836,413.003,186.461,413.955L186.461,413.955z"/>
	<path fill="#FFFFFF" d="M198.333,426.188c-1.206,1.33-3.77,0.966-5.648-0.846c-1.923-1.77-2.455-4.284-1.25-5.614
		c1.222-1.329,3.803-0.952,5.693,0.846C199.035,422.343,199.616,424.873,198.333,426.188L198.333,426.188z"/>
	<path fill="#FFFFFF" d="M214.71,433.289c-0.533,1.72-3.004,2.502-5.491,1.77c-2.487-0.752-4.112-2.771-3.611-4.506
		c0.517-1.734,3-2.552,5.506-1.771C213.597,429.537,215.226,431.533,214.71,433.289L214.71,433.289z"/>
	<path fill="#FFFFFF" d="M232.697,434.605c0.06,1.813-2.051,3.312-4.664,3.347c-2.625,0.058-4.755-1.407-4.783-3.19
		c0-1.835,2.065-3.32,4.692-3.362C230.553,431.35,232.697,432.806,232.697,434.605L232.697,434.605z"/>
	<path fill="#FFFFFF" d="M249.432,432.27c0.317,1.79-1.521,3.624-4.145,4.113c-2.583,0.476-4.97-0.632-5.302-2.4
		c-0.319-1.835,1.55-3.676,4.128-4.151C246.743,429.379,249.098,430.451,249.432,432.27L249.432,432.27z"/>
</g>
</svg>
