<?xml version="1.0" encoding="utf-8"?>
<!-- Generator: Adobe Illustrator 16.0.4, SVG Export Plug-In . SVG Version: 6.00 Build 0)  -->
<!DOCTYPE svg PUBLIC "-//W3C//DTD SVG 1.1//EN" "http://www.w3.org/Graphics/SVG/1.1/DTD/svg11.dtd">
<svg version="1.1" id="Layer_1" xmlns="http://www.w3.org/2000/svg" xmlns:xlink="http://www.w3.org/1999/xlink" x="0px" y="0px"
	 width="600px" height="600px" viewBox="0 0 600 600" enable-background="new 0 0 600 600" xml:space="preserve">
<g id="Logo">
	<g>
		<path fill="#FFFFFF" d="M508.482,91.517v122.849l0.359-0.36L594.838,300l-85.995,85.994l-0.359-0.36v122.85h-122.85l0.36,0.359
			L300,594.838l-85.995-85.995l-0.36-0.359H91.517v-122.85l-0.36,0.36L5.162,300l85.995-85.995l0.36,0.36V91.517h122.849l-0.36-0.36
			L300,5.162l85.994,85.995l0.366,0.366L508.482,91.517z M466.785,231.494v-98.279h-97.7l-0.29-0.289L300,64.13l-68.795,68.795
			l0.289,0.29h-98.279v98.279l-0.289-0.289L64.13,300l68.795,68.795l0.289-0.289v98.279h97.7l0.29,0.289L300,535.87l68.795-68.796
			l-0.289-0.289h98.279v-98.279l0.289,0.289L535.87,300l-68.796-68.795L466.785,231.494z"/>
	</g>
</g>
<g id="Github" display="none">
	<path display="inline" fill-rule="evenodd" clip-rule="evenodd" d="M244.547,496.213c0-5.326-0.206-22.932-0.304-41.601
		c-62.167,13.515-75.285-26.366-75.285-26.366c-10.166-25.83-24.812-32.697-24.812-32.697c-20.277-13.869,1.529-13.587,1.529-13.587
		c22.438,1.575,34.254,23.033,34.254,23.033c19.93,34.157,52.276,24.285,65.029,18.575c2.006-14.44,7.794-24.307,14.187-29.886
		c-49.634-5.645-101.812-24.812-101.812-110.436c0-24.393,8.73-44.329,23.026-59.98c-2.32-5.63-9.97-28.353,2.165-59.135
		c0,0,18.766-6.006,61.466,22.908c17.826-4.955,36.942-7.434,55.935-7.52c18.986,0.086,38.117,2.565,55.976,7.52
		c42.657-28.914,61.391-22.908,61.391-22.908c12.164,30.782,4.517,53.505,2.197,59.135c14.324,15.651,22.998,35.588,22.998,59.98
		c0,85.833-52.276,104.727-102.038,110.262c8.017,6.932,15.156,20.533,15.156,41.377c0,29.9-0.26,53.967-0.26,61.325L300,553.5
		L244.547,496.213z"/>
	<path display="inline" fill="#FFFFFF" d="M161.098,392.305c-0.491,1.112-2.24,1.444-3.83,0.678c-1.623-0.729-2.53-2.24-2.006-3.353
		c0.481-1.142,2.229-1.46,3.849-0.701C160.733,389.659,161.659,391.191,161.098,392.305L161.098,392.305z M158.349,390.266"/>
	<path display="inline" fill="#FFFFFF" d="M170.151,402.4c-1.066,0.983-3.151,0.528-4.564-1.033
		c-1.463-1.561-1.734-3.643-0.654-4.647c1.099-0.982,3.118-0.52,4.583,1.034C170.978,399.329,171.264,401.396,170.151,402.4
		L170.151,402.4z M168.019,400.109"/>
	<path display="inline" fill="#FFFFFF" d="M178.961,415.266c-1.37,0.954-3.611,0.064-4.994-1.923
		c-1.37-1.987-1.37-4.372,0.032-5.326c1.384-0.954,3.592-0.095,4.994,1.872C180.359,411.913,180.359,414.297,178.961,415.266
		L178.961,415.266z M178.961,415.266"/>
	<path display="inline" fill="#FFFFFF" d="M191.031,427.703c-1.226,1.353-3.833,0.983-5.743-0.859
		c-1.955-1.8-2.496-4.358-1.271-5.709c1.243-1.352,3.867-0.969,5.788,0.859C191.746,423.794,192.336,426.367,191.031,427.703
		L191.031,427.703z M191.031,427.703"/>
	<path display="inline" fill="#FFFFFF" d="M207.683,434.924c-0.542,1.749-3.054,2.544-5.583,1.8
		c-2.529-0.766-4.181-2.818-3.672-4.582c0.525-1.763,3.051-2.595,5.599-1.8C206.552,431.108,208.208,433.139,207.683,434.924
		L207.683,434.924z M207.683,434.924"/>
	<path display="inline" fill="#FFFFFF" d="M225.972,436.262c0.061,1.843-2.085,3.368-4.742,3.404
		c-2.67,0.058-4.835-1.432-4.864-3.245c0-1.865,2.1-3.376,4.771-3.419C223.792,432.951,225.972,434.433,225.972,436.262
		L225.972,436.262z M225.972,436.262"/>
	<path display="inline" fill="#FFFFFF" d="M242.989,433.363c0.318,1.799-1.529,3.643-4.166,4.134
		c-2.596,0.478-4.995-0.636-5.328-2.413c-0.321-1.844,1.558-3.694,4.149-4.172C240.286,430.458,242.653,431.535,242.989,433.363
		L242.989,433.363z M242.989,433.363"/>
</g>
<g display="none">
	<circle display="inline" fill="#0062DC" cx="215.727" cy="300" r="69.625"/>
	<circle display="inline" fill="#F90081" cx="384.273" cy="300" r="69.625"/>
</g>
<g display="none">
	<g display="inline">
		<path fill="#007BB5" d="M199.485,263.408h45.231v145.524h-45.231V263.408z M222.111,191.068c14.459,0,26.21,11.751,26.21,26.215
			c0,14.478-11.75,26.231-26.21,26.231c-14.496,0-26.23-11.753-26.23-26.231C195.881,202.819,207.615,191.068,222.111,191.068"/>
		<path fill="#007BB5" d="M273.083,263.408h43.386v19.881h0.602c6.035-11.44,20.791-23.504,42.794-23.504
			c45.8,0,54.256,30.143,54.256,69.324v79.823h-45.198v-70.77c0-16.882-0.31-38.59-23.502-38.59
			c-23.537,0-27.142,18.386-27.142,37.368v71.991h-45.195V263.408z"/>
	</g>
</g>
<path display="none" fill="#55ACEE" d="M421.375,224.715c-8.932,3.961-18.529,6.639-28.604,7.842
	c10.283-6.163,18.18-15.923,21.897-27.553c-9.621,5.708-20.279,9.852-31.625,12.086c-9.084-9.68-22.028-15.728-36.352-15.728
	c-27.506,0-49.805,22.299-49.805,49.802c0,3.904,0.441,7.704,1.291,11.35c-41.391-2.077-78.088-21.904-102.652-52.036
	c-4.287,7.355-6.743,15.911-6.743,25.038c0,17.278,8.792,32.522,22.155,41.453c-8.164-0.258-15.843-2.499-22.558-6.229
	c-0.004,0.208-0.004,0.417-0.004,0.626c0,24.13,17.167,44.26,39.95,48.834c-4.179,1.138-8.579,1.747-13.121,1.747
	c-3.209,0-6.329-0.312-9.37-0.894c6.338,19.786,24.73,34.186,46.523,34.588c-17.045,13.356-38.519,21.318-61.852,21.318
	c-4.02,0-7.984-0.235-11.88-0.695c22.041,14.131,48.218,22.375,76.343,22.375c91.606,0,141.7-75.888,141.7-141.7
	c0-2.159-0.049-4.307-0.145-6.443C406.254,243.474,414.698,234.702,421.375,224.715z"/>
<path display="none" fill="#35465D" d="M357.009,371.178c-4.43,2.109-12.906,3.951-19.225,4.115
	c-19.072,0.512-22.768-13.396-22.932-23.492v-74.169h47.846v-36.07h-47.671v-60.692c0,0-34.333,0-34.904,0s-1.574,0.501-1.714,1.771
	c-2.04,18.583-10.737,51.18-46.878,64.214v30.777h24.109v77.853c0,26.652,19.667,64.518,71.569,63.631
	c17.512-0.303,36.957-7.637,41.259-13.955L357.009,371.178z"/>
<g>
	<path fill="#FFFFFF" d="M357.461,412.045l-17.656-54.353H258.43l-17.655,54.353h-49.756l80.412-224.09h56.978l80.573,224.09
		H357.461z M298.556,230.816l-29.693,91.779h60.51l-29.694-91.779H298.556z"/>
</g>
</svg>
