<?xml version="1.0" encoding="utf-8"?>
<!-- Generator: Adobe Illustrator 16.0.4, SVG Export Plug-In . SVG Version: 6.00 Build 0)  -->
<!DOCTYPE svg PUBLIC "-//W3C//DTD SVG 1.1//EN" "http://www.w3.org/Graphics/SVG/1.1/DTD/svg11.dtd">
<svg version="1.1" id="Layer_1" xmlns="http://www.w3.org/2000/svg" xmlns:xlink="http://www.w3.org/1999/xlink" x="0px" y="0px"
	 width="600px" height="600px" viewBox="0 0 600 600" enable-background="new 0 0 600 600" xml:space="preserve">
<g id="Logo">
	<g>
		<path d="M508.482,91.517v122.849l0.359-0.36L594.838,300l-85.995,85.994l-0.359-0.36v122.85h-122.85l0.36,0.359L300,594.838
			l-85.995-85.995l-0.36-0.359H91.517v-122.85l-0.36,0.36L5.162,300l85.995-85.995l0.36,0.36V91.517h122.849l-0.36-0.36L300,5.162
			l85.994,85.995l0.366,0.366L508.482,91.517z M466.785,231.494v-98.279h-97.7l-0.29-0.289L300,64.13l-68.795,68.795l0.289,0.29
			h-98.279v98.279l-0.289-0.289L64.13,300l68.795,68.795l0.289-0.289v98.279h97.7l0.29,0.289L300,535.87l68.795-68.796l-0.289-0.289
			h98.279v-98.279l0.289,0.289L535.87,300l-68.796-68.795L466.785,231.494z"/>
	</g>
</g>
<path fill="#35465D" d="M357.009,371.178c-4.43,2.109-12.906,3.951-19.225,4.115c-19.072,0.512-22.768-13.396-22.932-23.492v-74.169
	h47.846v-36.07h-47.671v-60.692c0,0-34.333,0-34.904,0s-1.574,0.501-1.714,1.771c-2.04,18.583-10.737,51.18-46.878,64.214v30.777
	h24.109v77.853c0,26.652,19.667,64.518,71.569,63.631c17.512-0.303,36.957-7.637,41.259-13.955L357.009,371.178z"/>
</svg>
