<?xml version="1.0" encoding="utf-8"?>
<!-- Generator: Adobe Illustrator 16.0.4, SVG Export Plug-In . SVG Version: 6.00 Build 0)  -->
<!DOCTYPE svg PUBLIC "-//W3C//DTD SVG 1.1//EN" "http://www.w3.org/Graphics/SVG/1.1/DTD/svg11.dtd">
<svg version="1.1" id="Layer_1" xmlns="http://www.w3.org/2000/svg" xmlns:xlink="http://www.w3.org/1999/xlink" x="0px" y="0px"
	 width="600px" height="600px" viewBox="0 0 600 600" enable-background="new 0 0 600 600" xml:space="preserve">
<g id="Logo">
	<g>
		<path d="M508.482,91.517v122.849l0.358-0.36L594.838,300l-85.995,85.994l-0.358-0.36v122.851H385.634l0.36,0.358L300,594.838
			l-85.995-85.995l-0.36-0.358H91.517V385.634l-0.36,0.36L5.162,300l85.995-85.995l0.36,0.36V91.517h122.849l-0.36-0.36L300,5.162
			l85.994,85.995l0.366,0.366L508.482,91.517z M466.785,231.494v-98.279h-97.7l-0.29-0.289L300,64.13l-68.795,68.795l0.289,0.29
			h-98.279v98.279l-0.289-0.289L64.13,300l68.795,68.795l0.289-0.289v98.279h97.7l0.29,0.289L300,535.87l68.795-68.796l-0.289-0.289
			h98.279v-98.279l0.289,0.289L535.87,300l-68.796-68.795L466.785,231.494z"/>
	</g>
</g>
<path fill="#55ACEE" d="M428.465,220.317c-9.453,4.193-19.612,7.027-30.274,8.301c10.883-6.523,19.242-16.854,23.176-29.163
	c-10.184,6.042-21.464,10.428-33.473,12.792c-9.614-10.245-23.314-16.646-38.475-16.646c-29.113,0-52.715,23.602-52.715,52.711
	c0,4.132,0.467,8.154,1.366,12.013c-43.809-2.199-82.649-23.184-108.648-55.076c-4.537,7.785-7.136,16.84-7.136,26.5
	c0,18.288,9.306,34.421,23.449,43.874c-8.642-0.272-16.769-2.644-23.876-6.592c-0.004,0.22-0.004,0.441-0.004,0.663
	c0,25.54,18.169,46.845,42.284,51.686c-4.423,1.205-9.081,1.85-13.887,1.85c-3.397,0-6.7-0.331-9.918-0.947
	c6.708,20.942,26.175,36.185,49.241,36.608c-18.041,14.138-40.769,22.563-65.465,22.563c-4.255,0-8.45-0.248-12.574-0.735
	c23.329,14.956,51.035,23.682,80.803,23.682c96.957,0,149.978-80.321,149.978-149.977c0-2.285-0.053-4.559-0.154-6.82
	C412.461,240.172,421.398,230.888,428.465,220.317z"/>
</svg>
